<svg xmlns="http://www.w3.org/2000/svg" xmlns:xlink="http://www.w3.org/1999/xlink" width="2000" zoomAndPan="magnify" viewBox="0 0 1500 1499.999933" height="2000" preserveAspectRatio="xMidYMid meet" version="1.0"><defs><clipPath id="b26ef7cf39"><path d="M 493.007812 955 L 569 955 L 569 1341 L 493.007812 1341 Z M 493.007812 955 " clip-rule="nonzero"/></clipPath><clipPath id="1b34f3d674"><path d="M 493.007812 1163 L 532 1163 L 532 1250 L 493.007812 1250 Z M 493.007812 1163 " clip-rule="nonzero"/></clipPath><clipPath id="92f90f68fc"><path d="M 493.007812 1305 L 540 1305 L 540 1458.683594 L 493.007812 1458.683594 Z M 493.007812 1305 " clip-rule="nonzero"/></clipPath><clipPath id="2c793ac6bd"><path d="M 493.007812 186 L 569 186 L 569 572 L 493.007812 572 Z M 493.007812 186 " clip-rule="nonzero"/></clipPath><clipPath id="9d5c7bfe65"><path d="M 493.007812 555 L 704 555 L 704 972 L 493.007812 972 Z M 493.007812 555 " clip-rule="nonzero"/></clipPath><clipPath id="6438f81e72"><path d="M 493.007812 277 L 532 277 L 532 364 L 493.007812 364 Z M 493.007812 277 " clip-rule="nonzero"/></clipPath><clipPath id="bc1aab5d02"><path d="M 493.007812 68.183594 L 540 68.183594 L 540 222 L 493.007812 222 Z M 493.007812 68.183594 " clip-rule="nonzero"/></clipPath></defs><path fill="#34765b" d="M 762.730469 993.292969 C 765.054688 993.292969 768.75 993.292969 770.46875 991.414062 C 773.652344 987.847656 770.277344 980.84375 768.492188 977.5 C 766.066406 973.082031 763.230469 968.941406 759.992188 965.082031 C 757.285156 961.652344 754.257812 958.535156 750.917969 955.71875 C 746.078125 951.867188 741.109375 949.828125 737.734375 944.351562 C 732.769531 936.359375 729.550781 920.664062 741.78125 917.414062 C 742 917.355469 742.222656 917.324219 742.453125 917.316406 C 742.679688 917.308594 742.90625 917.328125 743.128906 917.375 C 743.351562 917.417969 743.566406 917.488281 743.777344 917.582031 C 743.984375 917.675781 744.179688 917.789062 744.359375 917.929688 C 744.539062 918.066406 744.703125 918.222656 744.847656 918.398438 C 744.996094 918.574219 745.117188 918.765625 745.21875 918.96875 C 745.320312 919.171875 745.398438 919.386719 745.453125 919.605469 C 745.507812 919.828125 745.535156 920.054688 745.535156 920.28125 C 745.535156 924.867188 750.089844 929.164062 753.910156 931.105469 C 756.097656 931.988281 758.371094 932.347656 760.726562 932.1875 C 765.917969 932.570312 770.949219 931.839844 775.816406 929.992188 C 776.429688 929.710938 777.011719 929.386719 777.570312 929.011719 C 778.128906 928.636719 778.652344 928.21875 779.144531 927.761719 C 779.632812 927.300781 780.085938 926.808594 780.496094 926.277344 C 780.90625 925.746094 781.273438 925.183594 781.59375 924.59375 C 781.914062 924.003906 782.1875 923.390625 782.410156 922.757812 C 782.632812 922.125 782.800781 921.476562 782.917969 920.8125 C 783.035156 920.152344 783.101562 919.488281 783.113281 918.816406 C 783.121094 918.144531 783.078125 917.476562 782.980469 916.808594 C 782.421875 911.359375 781.222656 906.050781 779.382812 900.890625 C 777.8125 895.648438 775.753906 890.609375 773.207031 885.765625 C 762.859375 866.660156 740.886719 851.757812 720.0625 846.1875 C 707.804688 843.003906 694.878906 844.246094 682.394531 845.488281 C 669.914062 846.730469 657.785156 848.226562 645.429688 849.277344 C 622.855469 851.1875 599.226562 851.792969 577.351562 845.199219 C 584.707031 869.84375 582.988281 896.527344 580.539062 921.839844 C 579.328125 934.164062 577.703125 946.453125 576.75 958.808594 C 575.996094 965.042969 575.976562 971.277344 576.699219 977.511719 C 577.417969 983.75 578.859375 989.816406 581.015625 995.710938 C 589.453125 1016.472656 604.101562 1035.800781 625.59375 1044.238281 C 630.988281 1046.339844 636.507812 1048.050781 642.148438 1049.363281 C 645.957031 1050.511719 649.832031 1050.808594 653.769531 1050.253906 C 654.957031 1049.96875 656.074219 1049.515625 657.128906 1048.902344 C 658.179688 1048.285156 659.121094 1047.53125 659.953125 1046.640625 C 660.785156 1045.75 661.472656 1044.757812 662.011719 1043.667969 C 662.554688 1042.574219 662.925781 1041.425781 663.132812 1040.226562 C 664.191406 1035.867188 664.5625 1031.453125 664.246094 1026.980469 C 664.054688 1020.992188 659.152344 1012.96875 652.371094 1013.097656 C 652.148438 1013.078125 651.929688 1013.039062 651.71875 1012.972656 C 651.503906 1012.910156 651.300781 1012.824219 651.105469 1012.714844 C 650.910156 1012.609375 650.726562 1012.484375 650.558594 1012.339844 C 650.390625 1012.191406 650.238281 1012.03125 650.101562 1011.855469 C 649.96875 1011.679688 649.851562 1011.488281 649.757812 1011.289062 C 649.664062 1011.085938 649.589844 1010.878906 649.539062 1010.660156 C 649.484375 1010.445312 649.457031 1010.222656 649.453125 1010.003906 C 649.445312 1009.78125 649.464844 1009.558594 649.503906 1009.339844 C 652.6875 997.082031 668.609375 1000.359375 676.441406 1005.265625 C 681.949219 1008.671875 683.957031 1013.636719 687.808594 1018.476562 C 690.625 1021.820312 693.742188 1024.84375 697.171875 1027.554688 C 701.015625 1030.765625 705.132812 1033.578125 709.523438 1035.992188 C 712.898438 1037.804688 719.808594 1041.019531 723.4375 1037.933594 C 725.414062 1036.308594 725.285156 1032.457031 725.316406 1030.226562 C 725.390625 1027.128906 725.117188 1024.0625 724.488281 1021.023438 C 723.792969 1017.761719 722.71875 1014.625 721.265625 1011.621094 C 719.8125 1008.617188 718.019531 1005.828125 715.894531 1003.257812 C 704.078125 1010.328125 690.070312 1003.609375 680.167969 995.902344 C 673.957031 991.03125 668.066406 985.363281 660.648438 982.339844 C 653.230469 979.3125 644.21875 972.785156 637.722656 977.433594 C 636.003906 978.644531 633.363281 982.847656 633.425781 980.875 C 633.476562 979.886719 633.597656 978.910156 633.785156 977.941406 C 633.972656 976.972656 634.222656 976.019531 634.542969 975.085938 C 634.859375 974.152344 635.238281 973.242188 635.683594 972.359375 C 636.125 971.476562 636.625 970.628906 637.1875 969.816406 C 637.746094 969.003906 638.355469 968.230469 639.023438 967.5 C 639.6875 966.773438 640.398438 966.089844 641.15625 965.460938 C 641.917969 964.828125 642.714844 964.25 643.550781 963.730469 C 644.390625 963.207031 645.261719 962.746094 646.160156 962.34375 C 642.625 959.832031 639.546875 956.847656 636.925781 953.394531 C 633.296875 947.824219 633.328125 940.945312 633.742188 934.578125 C 634.914062 927.335938 634.523438 920.183594 632.566406 913.117188 C 630.042969 905.949219 626.605469 899.25 622.25 893.023438 C 609.925781 875.289062 625.433594 888.820312 626.199219 889.300781 C 632.1875 893.875 638.671875 897.589844 645.652344 900.445312 C 652.71875 902.398438 659.875 902.792969 667.113281 901.621094 C 673.480469 901.113281 680.359375 901.082031 685.960938 904.804688 C 689.398438 907.4375 692.371094 910.515625 694.878906 914.039062 C 695.285156 913.144531 695.753906 912.285156 696.28125 911.453125 C 696.804688 910.625 697.386719 909.832031 698.019531 909.082031 C 698.652344 908.332031 699.335938 907.628906 700.066406 906.96875 C 700.796875 906.3125 701.570312 905.707031 702.382812 905.15625 C 703.195312 904.605469 704.042969 904.109375 704.921875 903.671875 C 705.804688 903.238281 706.710938 902.863281 707.640625 902.550781 C 708.574219 902.238281 709.523438 901.992188 710.488281 901.808594 C 711.453125 901.628906 712.429688 901.511719 713.410156 901.460938 C 715.382812 901.460938 713.410156 903.40625 712.070312 905.09375 C 707.199219 911.875 712.070312 922.222656 715.257812 929.484375 C 718.441406 936.742188 723.789062 942.21875 728.46875 948.207031 C 736.175781 958.109375 742.894531 972.117188 735.824219 983.929688 C 738.398438 986.074219 741.191406 987.882812 744.199219 989.351562 C 747.210938 990.820312 750.351562 991.910156 753.625 992.625 C 756.636719 993.175781 759.671875 993.398438 762.730469 993.292969 Z M 762.730469 993.292969 " fill-opacity="1" fill-rule="nonzero"/><path fill="#34765b" d="M 710.640625 1058.914062 C 705.777344 1056.785156 700.695312 1055.722656 695.386719 1055.730469 C 695.472656 1056.699219 695.492188 1057.671875 695.441406 1058.640625 C 695.390625 1059.613281 695.269531 1060.574219 695.082031 1061.527344 C 694.894531 1062.480469 694.640625 1063.417969 694.320312 1064.335938 C 694.003906 1065.253906 693.621094 1066.144531 693.171875 1067.007812 C 692.726562 1067.875 692.222656 1068.703125 691.660156 1069.492188 C 691.097656 1070.285156 690.480469 1071.035156 689.8125 1071.742188 C 689.140625 1072.445312 688.425781 1073.101562 687.664062 1073.703125 C 686.902344 1074.308594 686.101562 1074.855469 685.261719 1075.347656 C 681.164062 1077.484375 676.839844 1078.980469 672.292969 1079.824219 C 667.746094 1080.671875 663.175781 1080.835938 658.578125 1080.3125 C 648.550781 1079.613281 635.335938 1075.664062 628.109375 1085.214844 C 627.4375 1086.105469 626.851562 1087.046875 626.355469 1088.042969 C 625.859375 1089.042969 625.457031 1090.074219 625.148438 1091.144531 C 624.839844 1092.214844 624.632812 1093.304688 624.527344 1094.414062 C 624.421875 1095.523438 624.417969 1096.632812 624.515625 1097.742188 C 624.613281 1098.851562 624.808594 1099.941406 625.109375 1101.015625 C 625.40625 1102.089844 625.800781 1103.125 626.289062 1104.125 C 626.78125 1105.125 627.355469 1106.074219 628.019531 1106.96875 C 628.683594 1107.863281 629.425781 1108.6875 630.242188 1109.449219 C 632.40625 1111.261719 630.527344 1114.605469 628.074219 1114.699219 C 627.121094 1114.722656 626.167969 1114.695312 625.21875 1114.613281 C 624.269531 1114.535156 623.324219 1114.402344 622.386719 1114.21875 C 621.449219 1114.039062 620.527344 1113.804688 619.617188 1113.523438 C 618.703125 1113.238281 617.8125 1112.90625 616.933594 1112.527344 C 616.058594 1112.148438 615.207031 1111.722656 614.378906 1111.25 C 613.546875 1110.777344 612.746094 1110.265625 611.972656 1109.707031 C 611.199219 1109.144531 610.457031 1108.546875 609.75 1107.910156 C 609.042969 1107.269531 608.367188 1106.59375 607.734375 1105.882812 C 607.097656 1105.171875 606.503906 1104.425781 605.949219 1103.652344 C 605.394531 1102.875 604.882812 1102.070312 604.414062 1101.238281 C 603.945312 1100.40625 603.523438 1099.550781 603.148438 1098.675781 C 602.773438 1097.796875 602.445312 1096.902344 602.167969 1095.988281 C 601.890625 1095.078125 601.660156 1094.152344 601.484375 1093.214844 C 601.304688 1092.277344 601.179688 1091.332031 601.101562 1090.382812 C 601.027344 1089.429688 601.003906 1088.476562 601.03125 1087.523438 C 601.058594 1086.570312 601.136719 1085.621094 601.265625 1084.675781 C 601.496094 1083.242188 601.867188 1081.847656 602.382812 1080.488281 C 602.898438 1079.132812 603.542969 1077.839844 604.320312 1076.613281 C 605.097656 1075.386719 605.992188 1074.25 607 1073.207031 C 608.007812 1072.164062 609.109375 1071.230469 610.308594 1070.410156 C 602.898438 1067.230469 595.914062 1063.292969 589.355469 1058.597656 C 585.671875 1056.015625 582.199219 1053.171875 578.945312 1050.0625 C 575.691406 1046.953125 572.691406 1043.613281 569.945312 1040.046875 C 567.199219 1036.480469 564.738281 1032.726562 562.566406 1028.785156 C 560.390625 1024.84375 558.527344 1020.761719 556.976562 1016.535156 C 554.042969 1007.976562 551.917969 999.21875 550.605469 990.265625 C 550.292969 995.527344 549.234375 1000.632812 547.421875 1005.582031 C 544.238281 1014.496094 539.015625 1022.523438 534.941406 1031.054688 C 531.644531 1037.6875 529.207031 1044.625 527.621094 1051.859375 C 526.039062 1059.09375 525.359375 1066.414062 525.582031 1073.816406 C 525.945312 1078.539062 526.644531 1083.207031 527.675781 1087.828125 C 528.707031 1092.449219 530.0625 1096.972656 531.742188 1101.398438 C 533.417969 1105.828125 535.402344 1110.109375 537.695312 1114.253906 C 539.984375 1118.398438 542.558594 1122.355469 545.417969 1126.132812 C 546.945312 1128.234375 548.601562 1130.269531 550.035156 1132.339844 C 549.664062 1131.25 549.367188 1130.140625 549.144531 1129.011719 C 548.917969 1127.882812 548.769531 1126.746094 548.691406 1125.597656 C 548.617188 1124.449219 548.613281 1123.300781 548.6875 1122.152344 C 548.761719 1121.003906 548.910156 1119.863281 549.132812 1118.734375 C 549.355469 1117.605469 549.652344 1116.496094 550.019531 1115.402344 C 550.386719 1114.3125 550.824219 1113.25 551.328125 1112.21875 C 551.835938 1111.183594 552.40625 1110.1875 553.042969 1109.226562 C 553.675781 1108.269531 554.375 1107.355469 555.128906 1106.484375 C 556.167969 1104.785156 557.371094 1103.210938 558.746094 1101.765625 C 560.121094 1100.320312 561.628906 1099.039062 563.277344 1097.914062 C 564.921875 1096.792969 566.671875 1095.855469 568.519531 1095.105469 C 570.363281 1094.355469 572.269531 1093.808594 574.234375 1093.464844 C 583.179688 1092.378906 592.476562 1094.671875 598.144531 1102.125 C 603.8125 1109.574219 604.511719 1119.316406 609.097656 1127.40625 C 610.8125 1130.371094 612.863281 1133.082031 615.25 1135.539062 C 617.636719 1138 620.289062 1140.125 623.203125 1141.925781 C 627.066406 1144.390625 631.160156 1146.363281 635.496094 1147.847656 C 636.101562 1148.039062 636.671875 1148.261719 637.277344 1148.421875 C 644.835938 1150.480469 652.53125 1151.402344 660.363281 1151.191406 C 686.917969 1150.457031 713.472656 1135.523438 725.859375 1111.613281 C 726.703125 1110.121094 727.445312 1108.582031 728.089844 1106.996094 C 728.730469 1105.410156 729.269531 1103.785156 729.699219 1102.128906 C 730.128906 1100.472656 730.449219 1098.792969 730.660156 1097.09375 C 730.871094 1095.394531 730.96875 1093.6875 730.957031 1091.976562 C 730.945312 1090.265625 730.820312 1088.558594 730.585938 1086.863281 C 730.351562 1085.167969 730.003906 1083.492188 729.550781 1081.84375 C 729.097656 1080.191406 728.535156 1078.578125 727.871094 1077 C 727.203125 1075.421875 726.4375 1073.894531 725.574219 1072.417969 C 723.777344 1069.5 721.613281 1066.894531 719.070312 1064.597656 C 716.53125 1062.300781 713.722656 1060.40625 710.640625 1058.914062 Z M 710.640625 1058.914062 " fill-opacity="1" fill-rule="nonzero"/><g clip-path="url(#b26ef7cf39)"><path fill="#34765b" d="M 566.8125 1231.367188 C 567.980469 1224.214844 568.402344 1217.019531 568.085938 1209.777344 C 567.574219 1198.511719 565.25 1187.632812 561.113281 1177.140625 C 556.480469 1166.332031 550.515625 1156.3125 543.21875 1147.082031 C 528.796875 1127.722656 512.367188 1109.160156 507.304688 1084.835938 C 506.023438 1078.738281 505.382812 1072.578125 505.382812 1066.351562 C 505.382812 1060.125 506.023438 1053.960938 507.304688 1047.867188 C 510.011719 1035.289062 516.058594 1024.175781 522.171875 1013 C 527.9375 1002.398438 536.789062 990.332031 536.183594 977.976562 C 535.898438 972.40625 533.316406 963.425781 528.667969 959.730469 C 517.429688 950.816406 505.136719 957.28125 506.378906 971.511719 C 509.277344 990.363281 530.453125 981.066406 530.453125 981.066406 C 530.050781 983.914062 528.9375 986.453125 527.109375 988.675781 C 526.160156 990.136719 525.003906 991.414062 523.644531 992.503906 C 522.28125 993.59375 520.785156 994.441406 519.148438 995.042969 C 510.902344 998.035156 502.464844 992.8125 497.335938 986.542969 C 495.695312 984.472656 494.445312 982.191406 493.582031 979.695312 C 493.582031 989.355469 493.582031 999.003906 493.582031 1008.640625 C 493.582031 1036.976562 493.582031 1065.316406 493.007812 1093.65625 C 493.007812 1100.628906 494.917969 1125.082031 497.179688 1144.410156 C 498.421875 1152.882812 500.597656 1161.105469 503.707031 1169.085938 C 504.925781 1172.625 506.398438 1176.054688 508.121094 1179.378906 C 509.84375 1182.703125 511.800781 1185.882812 513.992188 1188.917969 C 516.179688 1191.953125 518.578125 1194.8125 521.1875 1197.5 C 523.796875 1200.183594 526.589844 1202.664062 529.558594 1204.9375 C 535.390625 1209.011719 540.507812 1213.839844 544.90625 1219.425781 C 546.917969 1222.363281 548.480469 1225.519531 549.601562 1228.894531 C 550.722656 1232.273438 551.355469 1235.738281 551.5 1239.292969 C 551.789062 1242.679688 551.496094 1246.015625 550.613281 1249.296875 C 549.734375 1252.578125 548.320312 1255.613281 546.371094 1258.398438 C 545.265625 1259.6875 544.046875 1260.851562 542.710938 1261.898438 C 541.375 1262.945312 539.953125 1263.855469 538.4375 1264.621094 C 536.925781 1265.390625 535.351562 1266 533.71875 1266.460938 C 532.085938 1266.917969 530.421875 1267.214844 528.730469 1267.347656 C 519.722656 1268.683594 508.195312 1266.964844 502.6875 1259.734375 C 502.949219 1261.78125 503.414062 1263.773438 504.085938 1265.722656 C 505.667969 1269.964844 508.171875 1273.5625 511.601562 1276.515625 C 517.523438 1281.675781 524.339844 1286.070312 524.847656 1294.601562 C 525.199219 1300.652344 521.34375 1309.980469 513.765625 1308.390625 C 511.675781 1307.730469 509.800781 1306.6875 508.140625 1305.253906 C 506.480469 1303.820312 505.171875 1302.117188 504.214844 1300.140625 C 504.550781 1307.339844 506.039062 1314.292969 508.671875 1321 C 510.640625 1326.007812 513.207031 1330.691406 516.378906 1335.039062 C 517.796875 1336.90625 519.335938 1338.667969 520.996094 1340.324219 C 520.929688 1335.808594 521.242188 1331.316406 521.941406 1326.851562 C 522.640625 1322.390625 523.710938 1318.015625 525.152344 1313.734375 C 526.59375 1309.453125 528.390625 1305.324219 530.535156 1301.347656 C 532.679688 1297.371094 535.148438 1293.605469 537.933594 1290.046875 C 539.304688 1287.882812 540.769531 1285.75 542.234375 1283.679688 C 546.339844 1277.917969 550.734375 1272.441406 554.492188 1266.488281 C 560.054688 1256.707031 563.972656 1246.304688 566.242188 1235.28125 C 566.242188 1234.039062 566.589844 1232.671875 566.8125 1231.367188 Z M 566.8125 1231.367188 " fill-opacity="1" fill-rule="nonzero"/></g><path fill="#34765b" d="M 540.003906 834.566406 C 540.75 834.671875 541.496094 834.664062 542.242188 834.542969 C 542.984375 834.417969 543.695312 834.1875 544.367188 833.84375 C 545.039062 833.503906 545.644531 833.066406 546.183594 832.539062 C 546.71875 832.007812 547.164062 831.410156 547.519531 830.746094 C 549.007812 827.644531 550.292969 824.457031 551.371094 821.191406 C 551.496094 820.902344 551.683594 820.667969 551.945312 820.492188 C 552.203125 820.3125 552.488281 820.21875 552.804688 820.207031 C 552.980469 819.800781 553.265625 819.503906 553.664062 819.3125 C 557.101562 818.222656 560.421875 816.851562 563.628906 815.207031 C 564.273438 814.835938 564.847656 814.371094 565.34375 813.816406 C 565.84375 813.261719 566.242188 812.644531 566.542969 811.964844 C 566.84375 811.28125 567.03125 810.570312 567.101562 809.832031 C 567.175781 809.089844 567.132812 808.355469 566.972656 807.628906 C 565.636719 804.222656 560.988281 803.933594 557.929688 803.964844 C 554.5 804.070312 551.085938 803.921875 547.679688 803.519531 C 540.890625 802.546875 534.597656 800.234375 528.796875 796.578125 C 532.375 802.308594 534.632812 808.519531 535.578125 815.207031 C 535.972656 818.773438 536.109375 822.351562 535.992188 825.9375 C 536.023438 828.898438 536.5 833.546875 540.003906 834.566406 Z M 540.003906 834.566406 " fill-opacity="1" fill-rule="nonzero"/><g clip-path="url(#1b34f3d674)"><path fill="#34765b" d="M 493.582031 1195.226562 C 493.582031 1204.9375 493.929688 1214.679688 493.992188 1224.425781 C 493.992188 1225.921875 493.992188 1227.417969 493.992188 1228.945312 C 495.875 1226.710938 498.15625 1225.011719 500.839844 1223.851562 C 512.492188 1219.011719 523.128906 1227.769531 523.703125 1239.613281 C 523.703125 1241.171875 520.898438 1232.671875 513.703125 1235.410156 C 513.042969 1235.695312 512.441406 1236.074219 511.902344 1236.550781 C 511.363281 1237.03125 510.910156 1237.578125 510.546875 1238.199219 C 510.183594 1238.820312 509.925781 1239.484375 509.773438 1240.1875 C 509.621094 1240.894531 509.585938 1241.601562 509.660156 1242.320312 C 510.234375 1249.515625 519.976562 1250.375 524.910156 1247.445312 C 526.027344 1246.8125 527.023438 1246.027344 527.902344 1245.089844 C 528.78125 1244.15625 529.5 1243.109375 530.0625 1241.957031 C 530.625 1240.804688 531.003906 1239.59375 531.203125 1238.324219 C 531.398438 1237.058594 531.402344 1235.789062 531.214844 1234.519531 C 530.484375 1232.058594 529.398438 1229.765625 527.960938 1227.640625 C 526.519531 1225.515625 524.792969 1223.660156 522.777344 1222.070312 C 514.441406 1214.628906 507.699219 1205.945312 502.558594 1196.023438 C 497.691406 1185.625 494.503906 1174.738281 493.007812 1163.355469 L 493.007812 1166.792969 C 493.355469 1176.28125 493.453125 1185.738281 493.582031 1195.226562 Z M 493.582031 1195.226562 " fill-opacity="1" fill-rule="nonzero"/></g><path fill="#34765b" d="M 602.824219 1149.820312 C 601.714844 1146.378906 600.167969 1143.144531 598.183594 1140.117188 C 596.203125 1137.09375 593.855469 1134.382812 591.140625 1131.992188 C 591.074219 1133.597656 590.8125 1135.167969 590.363281 1136.710938 C 589.910156 1138.253906 589.277344 1139.71875 588.46875 1141.105469 C 587.65625 1142.492188 586.691406 1143.761719 585.570312 1144.914062 C 584.449219 1146.066406 583.207031 1147.0625 581.84375 1147.910156 C 580.375 1148.59375 578.847656 1149.109375 577.265625 1149.464844 C 575.6875 1149.820312 574.085938 1150.003906 572.46875 1150.019531 C 570.847656 1150.03125 569.246094 1149.875 567.65625 1149.546875 C 566.070312 1149.21875 564.539062 1148.726562 563.058594 1148.070312 C 561.929688 1147.542969 560.867188 1146.90625 559.871094 1146.160156 C 561.082031 1148.101562 562.261719 1150.042969 563.3125 1152.082031 C 567.144531 1159.664062 570.058594 1167.589844 572.050781 1175.851562 C 574.039062 1184.113281 575.054688 1192.492188 575.09375 1200.988281 C 575.226562 1209.363281 574.695312 1217.695312 573.5 1225.984375 C 573.339844 1227.164062 573.117188 1228.308594 572.925781 1229.488281 C 572.738281 1230.664062 572.703125 1230.886719 572.578125 1231.589844 C 571.324219 1238.828125 569.324219 1245.859375 566.574219 1252.675781 C 563.828125 1259.488281 560.394531 1265.941406 556.273438 1272.027344 C 559.808594 1269.191406 563.40625 1266.390625 566.847656 1263.460938 C 574.296875 1257.09375 581.523438 1250.726562 588.339844 1243.71875 C 594.417969 1237.589844 599.269531 1230.605469 602.890625 1222.769531 C 605.835938 1215.90625 607.847656 1208.78125 608.929688 1201.390625 C 610.007812 1194 610.117188 1186.597656 609.257812 1179.179688 C 608.394531 1169.113281 606.25 1159.328125 602.824219 1149.820312 Z M 602.824219 1149.820312 " fill-opacity="1" fill-rule="nonzero"/><path fill="#34765b" d="M 669.789062 958.871094 C 667.0625 958.644531 664.335938 958.589844 661.605469 958.710938 C 670.167969 962.273438 678.085938 966.929688 685.359375 972.691406 C 693.921875 979.535156 707.644531 991.796875 719.523438 987.335938 C 723.152344 975.621094 711.246094 962.40625 704.621094 954 C 698.816406 946.769531 694.136719 938.875 690.578125 930.3125 C 690.453125 933.054688 690.515625 935.792969 690.769531 938.527344 C 690.992188 940.945312 688.160156 941.902344 686.375 941.007812 C 676.96875 936.605469 667.90625 931.585938 659.183594 925.949219 L 654.3125 922.765625 C 655.300781 924.261719 656.320312 925.949219 657.210938 927.285156 C 662.863281 936.003906 667.894531 945.066406 672.304688 954.476562 C 673.164062 956.292969 672.207031 959.125 669.789062 958.871094 Z M 669.789062 958.871094 " fill-opacity="1" fill-rule="nonzero"/><path fill="#34765b" d="M 880.222656 902.894531 C 878.148438 897.070312 875.15625 891.761719 871.246094 886.976562 C 869.117188 884.308594 866.675781 881.96875 863.921875 879.960938 C 861.167969 877.949219 858.195312 876.339844 855.003906 875.128906 C 846.152344 871.945312 835.902344 869.910156 830.105469 861.726562 C 828.910156 859.898438 827.945312 857.960938 827.207031 855.90625 C 826.472656 853.851562 825.984375 851.738281 825.75 849.570312 C 825.515625 847.398438 825.535156 845.234375 825.816406 843.066406 C 826.09375 840.902344 826.621094 838.800781 827.398438 836.761719 C 828.257812 834.941406 829.269531 833.207031 830.4375 831.566406 C 831.605469 829.925781 832.910156 828.402344 834.351562 826.996094 C 835.789062 825.585938 837.34375 824.316406 839.011719 823.1875 C 840.679688 822.058594 842.433594 821.085938 844.273438 820.269531 C 845.785156 819.453125 847.359375 818.792969 848.996094 818.277344 C 850.632812 817.761719 852.300781 817.40625 854.003906 817.210938 C 855.710938 817.015625 857.417969 816.980469 859.128906 817.109375 C 860.835938 817.238281 862.519531 817.527344 864.175781 817.976562 C 858.839844 813.824219 853.265625 810.011719 847.460938 806.546875 C 843.542969 804.199219 839.46875 802.164062 835.238281 800.4375 C 831.011719 798.710938 826.675781 797.316406 822.234375 796.253906 C 817.792969 795.1875 813.292969 794.46875 808.742188 794.089844 C 804.191406 793.714844 799.636719 793.683594 795.082031 794 C 779.574219 795.402344 765.753906 801.832031 752.191406 809.0625 C 747.804688 811.660156 743.195312 813.785156 738.367188 815.433594 C 733.542969 817.078125 728.597656 818.214844 723.535156 818.835938 L 723.183594 818.835938 C 734.179688 820.304688 744.792969 823.179688 755.027344 827.464844 C 759.207031 829.378906 763.222656 831.597656 767.066406 834.121094 C 770.914062 836.644531 774.546875 839.441406 777.96875 842.515625 C 781.386719 845.589844 784.554688 848.90625 787.472656 852.464844 C 790.390625 856.019531 793.019531 859.777344 795.367188 863.730469 C 798.289062 868.492188 800.847656 873.4375 803.042969 878.570312 C 803.855469 877.359375 804.789062 876.25 805.832031 875.230469 C 806.875 874.214844 808.011719 873.3125 809.242188 872.53125 C 810.472656 871.746094 811.769531 871.097656 813.132812 870.582031 C 814.496094 870.0625 815.898438 869.691406 817.339844 869.464844 C 818.28125 869.335938 819.230469 869.257812 820.1875 869.230469 C 821.140625 869.203125 822.089844 869.230469 823.042969 869.304688 C 823.992188 869.382812 824.9375 869.511719 825.875 869.691406 C 826.808594 869.867188 827.734375 870.097656 828.648438 870.375 C 829.558594 870.65625 830.453125 870.984375 831.332031 871.359375 C 832.207031 871.734375 833.0625 872.15625 833.890625 872.625 C 834.722656 873.09375 835.527344 873.601562 836.304688 874.15625 C 837.078125 874.714844 837.824219 875.308594 838.535156 875.945312 C 839.246094 876.578125 839.921875 877.25 840.558594 877.957031 C 841.199219 878.667969 841.796875 879.40625 842.355469 880.179688 C 842.914062 880.953125 843.429688 881.753906 843.902344 882.582031 C 844.375 883.414062 844.800781 884.265625 845.179688 885.140625 C 845.558594 886.015625 845.890625 886.90625 846.175781 887.816406 C 846.457031 888.726562 846.691406 889.652344 846.875 890.585938 C 847.058594 891.523438 847.191406 892.46875 847.273438 893.417969 C 847.355469 894.367188 847.386719 895.320312 847.363281 896.273438 C 847.363281 898.757812 843.925781 900.601562 842.109375 898.4375 C 841.355469 897.621094 840.53125 896.878906 839.636719 896.214844 C 838.746094 895.550781 837.800781 894.972656 836.800781 894.484375 C 835.800781 893.992188 834.765625 893.597656 833.691406 893.296875 C 832.621094 893 831.53125 892.800781 830.421875 892.703125 C 829.3125 892.605469 828.207031 892.609375 827.097656 892.71875 C 825.988281 892.824219 824.902344 893.03125 823.832031 893.339844 C 822.761719 893.648438 821.730469 894.050781 820.734375 894.546875 C 819.738281 895.046875 818.796875 895.632812 817.910156 896.304688 C 808.359375 903.53125 812.242188 916.746094 812.976562 926.777344 C 813.503906 931.351562 813.347656 935.898438 812.507812 940.425781 C 811.664062 944.953125 810.175781 949.253906 808.039062 953.332031 C 807.546875 954.175781 806.996094 954.976562 806.386719 955.742188 C 805.78125 956.507812 805.121094 957.222656 804.410156 957.894531 C 803.699219 958.566406 802.945312 959.179688 802.144531 959.742188 C 801.347656 960.304688 800.511719 960.808594 799.644531 961.253906 C 798.773438 961.695312 797.875 962.078125 796.949219 962.390625 C 796.027344 962.707031 795.085938 962.957031 794.125 963.136719 C 793.164062 963.316406 792.195312 963.429688 791.222656 963.472656 C 790.246094 963.515625 789.269531 963.488281 788.300781 963.394531 C 788.3125 966.550781 788.71875 969.65625 789.511719 972.714844 C 790.300781 975.769531 791.460938 978.679688 792.980469 981.445312 C 794.890625 984.6875 797.246094 987.5625 800.050781 990.066406 C 802.855469 992.574219 805.976562 994.59375 809.410156 996.125 C 836.15625 1008.097656 863.539062 984.34375 875.222656 961.898438 C 878.285156 955.917969 880.53125 949.648438 881.964844 943.085938 C 883.402344 936.523438 883.976562 929.890625 883.695312 923.179688 C 883.417969 916.265625 882.261719 909.503906 880.222656 902.894531 Z M 880.222656 902.894531 " fill-opacity="1" fill-rule="nonzero"/><path fill="#34765b" d="M 919.261719 841.890625 C 912.011719 840.933594 904.9375 839.25 898.039062 836.84375 C 891.136719 834.433594 884.550781 831.351562 878.28125 827.59375 C 879.765625 829.734375 880.828125 832.070312 881.464844 834.597656 C 881.945312 836.042969 882.25 837.527344 882.378906 839.042969 C 882.507812 840.5625 882.464844 842.074219 882.238281 843.582031 C 882.015625 845.085938 881.621094 846.546875 881.054688 847.960938 C 880.488281 849.375 879.765625 850.707031 878.886719 851.949219 C 877.980469 852.992188 876.984375 853.9375 875.890625 854.78125 C 874.796875 855.625 873.632812 856.351562 872.394531 856.960938 C 871.15625 857.570312 869.867188 858.050781 868.53125 858.402344 C 867.199219 858.753906 865.839844 858.972656 864.460938 859.050781 C 867.152344 862.03125 870.203125 864.578125 873.613281 866.695312 C 877.023438 868.8125 880.660156 870.414062 884.523438 871.5 C 895.257812 875.113281 906.285156 877.140625 917.605469 877.582031 C 920.402344 877.734375 923.203125 877.738281 926.003906 877.59375 C 928.804688 877.449219 931.585938 877.15625 934.355469 876.714844 C 937.125 876.273438 939.863281 875.6875 942.570312 874.953125 C 945.273438 874.222656 947.933594 873.347656 950.546875 872.332031 C 953.160156 871.316406 955.710938 870.164062 958.203125 868.878906 C 960.695312 867.589844 963.109375 866.175781 965.449219 864.628906 C 967.789062 863.085938 970.039062 861.421875 972.203125 859.636719 C 974.367188 857.851562 976.429688 855.960938 978.390625 853.957031 C 986.390625 845.804688 993.96875 837.3125 1001.125 828.484375 C 1002.238281 827.050781 1003.382812 825.648438 1004.53125 824.25 C 998.375 828.433594 991.839844 831.90625 984.929688 834.671875 C 978.019531 837.4375 970.894531 839.429688 963.550781 840.648438 C 948.851562 843.40625 934.089844 843.820312 919.261719 841.890625 Z M 919.261719 841.890625 " fill-opacity="1" fill-rule="nonzero"/><path fill="#34765b" d="M 1053.40625 776.550781 C 1046.691406 773.902344 1039.730469 772.417969 1032.519531 772.09375 C 1034.5 773.046875 1036.207031 774.351562 1037.644531 776.011719 C 1039.085938 777.671875 1040.136719 779.550781 1040.796875 781.644531 C 1042.355469 789.222656 1033.027344 793.109375 1026.976562 792.726562 C 1018.316406 792.152344 1014.242188 785.402344 1008.890625 779.480469 C 1007.371094 777.714844 1005.648438 776.179688 1003.71875 774.875 C 1001.792969 773.566406 999.726562 772.535156 997.523438 771.773438 C 995.78125 771.191406 994 770.789062 992.175781 770.566406 C 1000.835938 777.09375 1001.472656 792.152344 998.542969 802.183594 C 994.308594 816.765625 979.441406 821.289062 965.75 818.644531 C 962.289062 817.949219 958.992188 816.789062 955.859375 815.164062 C 952.726562 813.539062 949.875 811.515625 947.3125 809.09375 C 942.027344 804.125 938.140625 797.980469 933.367188 792.535156 C 930.871094 789.8125 928.199219 787.277344 925.347656 784.929688 C 922.496094 782.585938 919.492188 780.453125 916.339844 778.53125 C 913.183594 776.613281 909.910156 774.921875 906.515625 773.464844 C 903.125 772.007812 899.644531 770.796875 896.082031 769.832031 C 888.523438 767.53125 880.851562 765.726562 873.058594 764.417969 C 870.671875 764.007812 868.25 763.625 865.832031 763.273438 C 868.25 762.921875 870.671875 762.542969 873.058594 762.128906 C 880.851562 760.820312 888.523438 759.015625 896.082031 756.714844 C 899.632812 755.753906 903.101562 754.550781 906.484375 753.101562 C 909.867188 751.652344 913.128906 749.972656 916.277344 748.0625 C 919.421875 746.152344 922.417969 744.03125 925.265625 741.699219 C 928.109375 739.367188 930.78125 736.847656 933.269531 734.140625 C 938.046875 728.695312 941.929688 722.550781 947.21875 717.582031 C 949.78125 715.15625 952.628906 713.132812 955.761719 711.511719 C 958.898438 709.886719 962.191406 708.726562 965.652344 708.03125 C 979.472656 705.355469 994.308594 709.910156 998.449219 724.492188 C 1001.347656 734.519531 1000.710938 749.582031 992.082031 756.109375 C 993.902344 755.886719 995.6875 755.480469 997.429688 754.898438 C 999.632812 754.140625 1001.695312 753.109375 1003.625 751.800781 C 1005.550781 750.492188 1007.277344 748.957031 1008.796875 747.195312 C 1013.988281 741.273438 1018.347656 734.457031 1026.882812 733.949219 C 1032.933594 733.566406 1042.261719 737.449219 1040.703125 745.027344 C 1040.039062 747.125 1038.988281 749 1037.550781 750.660156 C 1036.113281 752.320312 1034.402344 753.628906 1032.421875 754.582031 C 1039.671875 754.246094 1046.664062 752.738281 1053.40625 750.058594 C 1058.398438 748.082031 1063.070312 745.511719 1067.414062 742.355469 C 1069.28125 740.933594 1071.042969 739.394531 1072.703125 737.738281 C 1068.246094 737.8125 1063.816406 737.515625 1059.414062 736.84375 C 1055.011719 736.167969 1050.695312 735.132812 1046.464844 733.730469 C 1042.238281 732.328125 1038.15625 730.582031 1034.222656 728.492188 C 1030.289062 726.402344 1026.558594 723.996094 1023.03125 721.277344 L 1022.265625 720.671875 C 1021.277344 720.035156 1020.257812 719.429688 1019.304688 718.761719 C 1012.9375 714.367188 1006.792969 709.207031 1000.199219 705.101562 C 992.601562 700.609375 984.566406 697.117188 976.097656 694.625 L 973.835938 694.019531 L 970.652344 693.253906 C 966.226562 692.300781 961.769531 691.566406 957.308594 691.058594 C 955.113281 690.835938 952.917969 690.644531 950.6875 690.550781 C 945.027344 690.417969 939.390625 690.738281 933.78125 691.519531 C 928.171875 692.296875 922.660156 693.519531 917.246094 695.191406 C 911.835938 696.859375 906.59375 698.953125 901.519531 701.46875 C 896.445312 703.988281 891.609375 706.894531 887.003906 710.195312 C 867.390625 723.757812 849.910156 741.113281 826.859375 748.851562 C 802.179688 757.097656 776.644531 752.988281 754.039062 741.015625 C 741.8125 734.648438 729.105469 725.828125 714.9375 724.652344 C 708.855469 724.140625 701.152344 725.191406 697.394531 730.605469 C 696.496094 731.878906 695.84375 733.269531 695.445312 734.773438 C 695.046875 736.28125 694.917969 737.808594 695.070312 739.359375 C 695.414062 738.445312 695.832031 737.5625 696.328125 736.714844 C 696.820312 735.871094 697.378906 735.070312 698.003906 734.3125 C 698.628906 733.558594 699.308594 732.863281 700.050781 732.222656 C 700.792969 731.582031 701.582031 731.003906 702.417969 730.496094 C 703.253906 729.984375 704.125 729.546875 705.035156 729.183594 C 705.945312 728.820312 706.878906 728.53125 707.835938 728.320312 C 708.789062 728.109375 709.757812 727.980469 710.738281 727.929688 C 711.714844 727.882812 712.691406 727.914062 713.664062 728.027344 C 716.371094 728.433594 718.789062 729.496094 720.921875 731.210938 C 723.515625 732.832031 725.480469 735.015625 726.8125 737.769531 C 730.253906 744.902344 727.417969 751.96875 722.675781 757.636719 C 721.097656 759.5 719.28125 761.089844 717.230469 762.414062 C 716.695312 762.761719 716.144531 763.082031 715.574219 763.367188 C 716.144531 763.65625 716.695312 763.976562 717.230469 764.324219 C 719.253906 765.675781 721.035156 767.289062 722.578125 769.164062 C 727.324219 774.832031 730.15625 781.902344 726.71875 789.03125 C 725.386719 791.785156 723.421875 793.972656 720.828125 795.59375 C 718.695312 797.304688 716.273438 798.367188 713.570312 798.777344 C 712.59375 798.886719 711.621094 798.921875 710.640625 798.871094 C 709.664062 798.820312 708.695312 798.691406 707.738281 798.480469 C 706.78125 798.269531 705.847656 797.984375 704.941406 797.617188 C 704.03125 797.253906 703.160156 796.816406 702.320312 796.304688 C 701.484375 795.796875 700.695312 795.222656 699.957031 794.578125 C 699.214844 793.9375 698.53125 793.242188 697.90625 792.488281 C 697.28125 791.734375 696.722656 790.933594 696.230469 790.085938 C 695.738281 789.238281 695.320312 788.355469 694.972656 787.441406 C 694.824219 788.992188 694.949219 790.519531 695.351562 792.027344 C 695.75 793.535156 696.398438 794.925781 697.296875 796.195312 C 701.054688 801.609375 708.761719 802.566406 714.84375 802.152344 C 729.011719 800.972656 741.714844 792.28125 753.941406 785.785156 C 776.550781 773.8125 802.085938 769.863281 826.761719 777.953125 C 849.816406 785.691406 867.296875 803.042969 886.910156 816.605469 C 891.511719 819.90625 896.351562 822.816406 901.425781 825.332031 C 906.496094 827.847656 911.742188 829.941406 917.152344 831.613281 C 922.5625 833.28125 928.074219 834.507812 933.683594 835.285156 C 939.292969 836.0625 944.929688 836.386719 950.59375 836.253906 C 952.820312 836.253906 955.019531 835.964844 957.214844 835.742188 C 961.671875 835.234375 966.128906 834.5 970.554688 833.546875 L 973.742188 832.78125 L 976 832.175781 C 984.46875 829.6875 992.503906 826.195312 1000.105469 821.703125 C 1006.664062 817.5 1012.839844 812.4375 1019.210938 808.042969 C 1020.164062 807.375 1021.183594 806.769531 1022.171875 806.132812 L 1022.933594 805.527344 C 1026.460938 802.804688 1030.191406 800.398438 1034.125 798.308594 C 1038.058594 796.21875 1042.140625 794.472656 1046.371094 793.070312 C 1050.597656 791.667969 1054.914062 790.632812 1059.320312 789.960938 C 1063.722656 789.289062 1068.152344 788.988281 1072.605469 789.066406 C 1070.949219 787.40625 1069.1875 785.867188 1067.320312 784.449219 C 1063.015625 781.230469 1058.375 778.597656 1053.40625 776.550781 Z M 1053.40625 776.550781 " fill-opacity="1" fill-rule="nonzero"/><path fill="#34765b" d="M 821.828125 1065.285156 C 817.910156 1062.578125 818.644531 1054.648438 824.46875 1055.316406 C 827.402344 1055.636719 830.332031 1055.613281 833.257812 1055.25 C 836.183594 1054.886719 839.027344 1054.1875 841.792969 1053.160156 C 844.554688 1052.132812 847.164062 1050.800781 849.617188 1049.164062 C 852.070312 1047.527344 854.300781 1045.628906 856.3125 1043.472656 C 853.027344 1044.332031 849.691406 1044.785156 846.296875 1044.835938 C 842.90625 1044.882812 839.558594 1044.523438 836.25 1043.757812 C 831.089844 1042.527344 826.101562 1040.804688 821.277344 1038.589844 C 816.457031 1036.378906 811.894531 1033.71875 807.59375 1030.609375 C 799.410156 1024.242188 793.777344 1013.734375 783.554688 1010.296875 C 774.609375 1007.109375 762.03125 1006.378906 752.222656 1015.613281 C 750.722656 1016.960938 749.332031 1018.417969 748.050781 1019.972656 C 738.753906 1028.921875 739.074219 1042.742188 742.574219 1051.816406 C 746.363281 1061.367188 756.394531 1066.84375 762.570312 1074.835938 C 765.824219 1079.265625 768.582031 1083.988281 770.839844 1089 C 773.101562 1094.011719 774.8125 1099.203125 775.976562 1104.574219 C 777.285156 1110.980469 777.125 1117.347656 775.5 1123.679688 C 777.640625 1121.660156 779.523438 1119.421875 781.148438 1116.964844 C 782.773438 1114.511719 784.097656 1111.902344 785.121094 1109.140625 C 786.140625 1106.378906 786.835938 1103.535156 787.199219 1100.613281 C 787.566406 1097.691406 787.589844 1094.765625 787.28125 1091.839844 C 786.675781 1086.109375 794.601562 1085.28125 797.246094 1089.132812 C 805.558594 1101.390625 814.121094 1112.027344 828.195312 1117.789062 C 840.167969 1122.820312 852.425781 1127.34375 864.496094 1132.148438 C 859.6875 1120.304688 855.292969 1108.238281 850.421875 1096.394531 C 844.65625 1082 834.023438 1073.46875 821.828125 1065.285156 Z M 821.828125 1065.285156 " fill-opacity="1" fill-rule="nonzero"/><g clip-path="url(#92f90f68fc)"><path fill="#34765b" d="M 528.03125 1391.621094 C 523.480469 1384.617188 524.082031 1373.25 518.703125 1366.914062 C 495.839844 1340.230469 493.546875 1305.332031 493.007812 1305.394531 L 493.007812 1458.007812 C 497.082031 1448.265625 501.605469 1438.714844 505.742188 1429.003906 C 510.519531 1417.636719 509.308594 1406.714844 507.046875 1394.867188 C 506.378906 1391.144531 511.378906 1387.101562 514.308594 1390.730469 C 515.808594 1392.585938 517.5 1394.25 519.382812 1395.714844 C 521.265625 1397.183594 523.292969 1398.414062 525.457031 1399.414062 C 527.625 1400.414062 529.878906 1401.152344 532.21875 1401.632812 C 534.554688 1402.113281 536.917969 1402.320312 539.304688 1402.257812 C 534.742188 1399.5625 530.984375 1396.019531 528.03125 1391.621094 Z M 528.03125 1391.621094 " fill-opacity="1" fill-rule="nonzero"/></g><path fill="#34765b" d="M 728.3125 578.660156 C 723.628906 584.679688 718.21875 590.3125 715.097656 597.382812 C 711.976562 604.453125 707.074219 614.992188 711.914062 621.773438 C 713.15625 623.460938 715.097656 625.464844 713.25 625.402344 C 712.269531 625.355469 711.296875 625.238281 710.328125 625.054688 C 709.363281 624.875 708.414062 624.625 707.484375 624.3125 C 706.550781 624 705.644531 623.628906 704.765625 623.191406 C 703.882812 622.753906 703.035156 622.261719 702.222656 621.710938 C 701.410156 621.15625 700.636719 620.554688 699.90625 619.894531 C 699.175781 619.238281 698.496094 618.535156 697.859375 617.785156 C 697.226562 617.03125 696.644531 616.242188 696.121094 615.410156 C 695.59375 614.582031 695.125 613.71875 694.71875 612.824219 C 692.210938 616.351562 689.238281 619.429688 685.804688 622.058594 C 680.199219 625.6875 673.320312 625.65625 666.953125 625.242188 C 659.714844 624.074219 652.5625 624.464844 645.492188 626.421875 C 638.515625 629.273438 632.027344 632.988281 626.039062 637.566406 C 625.304688 638.042969 609.765625 651.574219 622.089844 633.839844 C 626.445312 627.613281 629.882812 620.917969 632.40625 613.75 C 634.363281 606.679688 634.753906 599.527344 633.585938 592.289062 C 633.074219 585.921875 633.042969 579.042969 636.769531 573.46875 C 639.332031 569.996094 642.359375 566.980469 645.84375 564.425781 C 644.941406 564.023438 644.070312 563.5625 643.234375 563.039062 C 642.394531 562.519531 641.597656 561.941406 640.839844 561.308594 C 640.082031 560.679688 639.367188 559.996094 638.703125 559.269531 C 638.039062 558.539062 637.425781 557.769531 636.867188 556.953125 C 636.308594 556.140625 635.808594 555.292969 635.363281 554.410156 C 634.921875 553.527344 634.542969 552.621094 634.222656 551.683594 C 633.90625 550.75 633.652344 549.796875 633.464844 548.828125 C 633.28125 547.859375 633.160156 546.882812 633.105469 545.894531 C 633.105469 543.921875 635.6875 548.125 637.40625 549.335938 C 643.773438 554.046875 653.324219 547.359375 660.332031 544.429688 C 667.335938 541.503906 673.640625 535.738281 679.847656 530.867188 C 689.75 523.160156 703.761719 516.441406 715.574219 523.511719 C 717.71875 520.945312 719.527344 518.160156 720.996094 515.15625 C 722.46875 512.152344 723.558594 509.015625 724.265625 505.746094 C 724.894531 502.707031 725.167969 499.640625 725.09375 496.542969 C 725.09375 494.3125 725.09375 490.460938 723.214844 488.835938 C 719.585938 485.652344 712.675781 488.835938 709.300781 490.78125 C 704.886719 493.207031 700.746094 496.042969 696.882812 499.28125 C 693.457031 501.988281 690.335938 505.015625 687.523438 508.355469 C 683.671875 513.195312 681.664062 518.164062 676.15625 521.570312 C 668.164062 526.472656 652.464844 529.753906 649.21875 517.492188 C 649.175781 517.273438 649.160156 517.054688 649.164062 516.832031 C 649.171875 516.609375 649.199219 516.390625 649.25 516.171875 C 649.300781 515.957031 649.375 515.746094 649.472656 515.546875 C 649.566406 515.34375 649.679688 515.15625 649.816406 514.980469 C 649.953125 514.800781 650.101562 514.640625 650.273438 514.496094 C 650.441406 514.351562 650.625 514.222656 650.820312 514.117188 C 651.015625 514.011719 651.21875 513.925781 651.429688 513.859375 C 651.644531 513.796875 651.863281 513.753906 652.082031 513.738281 C 658.867188 513.738281 663.769531 505.839844 663.960938 499.855469 C 664.277344 495.382812 663.90625 490.964844 662.847656 486.609375 C 662.640625 485.40625 662.269531 484.257812 661.726562 483.167969 C 661.183594 482.074219 660.5 481.082031 659.667969 480.191406 C 658.835938 479.300781 657.894531 478.546875 656.839844 477.933594 C 655.789062 477.316406 654.667969 476.867188 653.484375 476.578125 C 649.546875 476.023438 645.671875 476.320312 641.863281 477.46875 C 636.277344 478.792969 630.808594 480.5 625.464844 482.597656 C 604.132812 491.035156 589.484375 510.363281 580.886719 531.121094 C 578.730469 537.019531 577.292969 543.085938 576.570312 549.320312 C 575.851562 555.558594 575.867188 561.792969 576.621094 568.027344 C 577.578125 580.378906 579.199219 592.671875 580.410156 604.992188 C 582.863281 630.464844 584.582031 656.988281 577.226562 681.632812 C 599.101562 675.042969 622.726562 675.648438 645.300781 677.558594 C 657.65625 678.609375 669.945312 680.136719 682.269531 681.347656 C 694.589844 682.558594 707.742188 683.925781 719.9375 680.648438 C 740.761719 675.074219 762.730469 660.300781 773.078125 641.070312 C 775.675781 636.210938 777.777344 631.148438 779.382812 625.878906 C 781.222656 620.71875 782.421875 615.410156 782.980469 609.960938 C 783.078125 609.296875 783.121094 608.628906 783.113281 607.957031 C 783.101562 607.285156 783.035156 606.617188 782.917969 605.957031 C 782.800781 605.292969 782.632812 604.644531 782.410156 604.011719 C 782.1875 603.378906 781.914062 602.765625 781.59375 602.175781 C 781.273438 601.585938 780.90625 601.023438 780.496094 600.492188 C 780.085938 599.960938 779.632812 599.46875 779.144531 599.007812 C 778.652344 598.550781 778.128906 598.132812 777.570312 597.757812 C 777.011719 597.386719 776.429688 597.058594 775.816406 596.777344 C 770.949219 594.933594 765.917969 594.199219 760.726562 594.582031 C 758.371094 594.421875 756.097656 594.78125 753.910156 595.664062 C 750.089844 597.605469 745.441406 602.03125 745.535156 606.488281 C 745.535156 606.71875 745.507812 606.941406 745.453125 607.164062 C 745.398438 607.386719 745.320312 607.597656 745.21875 607.800781 C 745.117188 608.003906 744.996094 608.195312 744.847656 608.371094 C 744.703125 608.546875 744.539062 608.703125 744.359375 608.839844 C 744.179688 608.980469 743.984375 609.09375 743.777344 609.1875 C 743.566406 609.28125 743.351562 609.351562 743.128906 609.394531 C 742.90625 609.441406 742.679688 609.460938 742.453125 609.453125 C 742.222656 609.445312 742 609.414062 741.78125 609.355469 C 729.550781 606.171875 732.769531 590.410156 737.734375 582.417969 C 741.109375 576.941406 746.078125 574.902344 750.917969 571.050781 C 754.257812 568.238281 757.285156 565.117188 759.992188 561.6875 C 763.230469 557.828125 766.066406 553.6875 768.492188 549.269531 C 770.277344 546.085938 773.589844 538.921875 770.46875 535.355469 C 768.75 533.382812 765.054688 533.542969 762.730469 533.476562 C 759.644531 533.417969 756.585938 533.695312 753.5625 534.304688 C 750.289062 535.015625 747.144531 536.109375 744.136719 537.578125 C 741.125 539.046875 738.335938 540.855469 735.761719 543 C 742.734375 554.746094 736.015625 568.757812 728.3125 578.660156 Z M 728.3125 578.660156 " fill-opacity="1" fill-rule="nonzero"/><path fill="#34765b" d="M 598.304688 424.519531 C 592.636719 431.96875 583.339844 434.261719 574.390625 433.179688 C 572.429688 432.835938 570.523438 432.289062 568.675781 431.539062 C 566.828125 430.789062 565.082031 429.851562 563.4375 428.726562 C 561.789062 427.605469 560.277344 426.320312 558.90625 424.875 C 557.53125 423.433594 556.324219 421.859375 555.289062 420.15625 C 554.53125 419.289062 553.835938 418.375 553.199219 417.414062 C 552.566406 416.457031 551.992188 415.460938 551.488281 414.425781 C 550.980469 413.390625 550.546875 412.328125 550.175781 411.238281 C 549.808594 410.148438 549.515625 409.039062 549.292969 407.910156 C 549.070312 406.777344 548.921875 405.640625 548.847656 404.492188 C 548.773438 403.34375 548.773438 402.195312 548.851562 401.046875 C 548.925781 399.898438 549.078125 398.757812 549.300781 397.628906 C 549.527344 396.5 549.824219 395.390625 550.191406 394.300781 C 548.632812 396.371094 547.007812 398.410156 545.578125 400.671875 C 542.71875 404.445312 540.144531 408.40625 537.855469 412.546875 C 535.5625 416.691406 533.578125 420.976562 531.898438 425.402344 C 530.222656 429.828125 528.867188 434.351562 527.835938 438.972656 C 526.800781 443.59375 526.105469 448.265625 525.738281 452.984375 C 525.515625 460.386719 526.199219 467.707031 527.78125 474.941406 C 529.367188 482.179688 531.804688 489.113281 535.101562 495.746094 C 539.175781 504.3125 544.300781 512.335938 547.582031 521.21875 C 549.390625 526.167969 550.453125 531.273438 550.765625 536.535156 C 552.078125 527.582031 554.199219 518.824219 557.132812 510.265625 C 558.679688 506.03125 560.535156 501.9375 562.703125 497.984375 C 564.875 494.03125 567.332031 490.269531 570.074219 486.691406 C 572.816406 483.113281 575.816406 479.765625 579.070312 476.644531 C 582.324219 473.523438 585.796875 470.667969 589.484375 468.078125 C 596.042969 463.382812 603.027344 459.445312 610.4375 456.265625 C 609.226562 455.449219 608.109375 454.523438 607.089844 453.480469 C 606.070312 452.441406 605.164062 451.304688 604.378906 450.078125 C 603.589844 448.851562 602.933594 447.558594 602.410156 446.199219 C 601.882812 444.835938 601.503906 443.4375 601.265625 442 C 601.136719 441.054688 601.058594 440.105469 601.03125 439.152344 C 601.003906 438.195312 601.027344 437.246094 601.101562 436.292969 C 601.179688 435.34375 601.304688 434.398438 601.484375 433.460938 C 601.660156 432.523438 601.890625 431.597656 602.167969 430.683594 C 602.445312 429.773438 602.773438 428.875 603.148438 428 C 603.523438 427.121094 603.945312 426.269531 604.414062 425.4375 C 604.882812 424.605469 605.394531 423.800781 605.949219 423.023438 C 606.503906 422.246094 607.097656 421.503906 607.734375 420.792969 C 608.367188 420.082031 609.042969 419.40625 609.75 418.765625 C 610.457031 418.125 611.199219 417.527344 611.972656 416.96875 C 612.746094 416.410156 613.546875 415.894531 614.378906 415.421875 C 615.207031 414.953125 616.058594 414.527344 616.933594 414.144531 C 617.8125 413.765625 618.703125 413.4375 619.617188 413.152344 C 620.527344 412.871094 621.449219 412.636719 622.386719 412.453125 C 623.324219 412.273438 624.269531 412.140625 625.21875 412.058594 C 626.167969 411.980469 627.121094 411.949219 628.074219 411.972656 C 630.527344 411.972656 632.40625 415.414062 630.242188 417.226562 C 629.425781 417.984375 628.683594 418.8125 628.019531 419.707031 C 627.355469 420.601562 626.78125 421.546875 626.289062 422.546875 C 625.800781 423.546875 625.40625 424.585938 625.109375 425.660156 C 624.808594 426.730469 624.613281 427.824219 624.515625 428.933594 C 624.417969 430.042969 624.421875 431.152344 624.527344 432.261719 C 624.632812 433.367188 624.839844 434.457031 625.148438 435.527344 C 625.457031 436.597656 625.859375 437.632812 626.355469 438.628906 C 626.851562 439.625 627.4375 440.570312 628.109375 441.457031 C 635.335938 451.011719 648.550781 447.0625 658.578125 446.363281 C 663.152344 445.847656 667.699219 446.011719 672.222656 446.851562 C 676.75 447.691406 681.050781 449.175781 685.132812 451.296875 C 685.972656 451.789062 686.773438 452.335938 687.535156 452.9375 C 688.296875 453.542969 689.015625 454.195312 689.683594 454.902344 C 690.351562 455.609375 690.96875 456.355469 691.53125 457.148438 C 692.09375 457.941406 692.601562 458.769531 693.046875 459.632812 C 693.492188 460.496094 693.875 461.386719 694.195312 462.304688 C 694.515625 463.222656 694.769531 464.160156 694.957031 465.113281 C 695.144531 466.070312 695.261719 467.03125 695.3125 468.003906 C 695.363281 468.972656 695.347656 469.941406 695.261719 470.910156 C 700.566406 470.917969 705.652344 469.859375 710.511719 467.726562 C 713.621094 466.253906 716.460938 464.371094 719.027344 462.078125 C 721.59375 459.785156 723.785156 457.179688 725.605469 454.257812 C 726.46875 452.78125 727.234375 451.253906 727.902344 449.675781 C 728.566406 448.097656 729.128906 446.484375 729.582031 444.832031 C 730.035156 443.179688 730.382812 441.507812 730.617188 439.8125 C 730.851562 438.113281 730.976562 436.410156 730.988281 434.699219 C 731 432.984375 730.902344 431.28125 730.691406 429.582031 C 730.480469 427.882812 730.160156 426.203125 729.730469 424.546875 C 729.300781 422.886719 728.761719 421.265625 728.121094 419.679688 C 727.476562 418.089844 726.734375 416.550781 725.890625 415.0625 C 713.632812 391.117188 687.234375 376.183594 660.523438 375.453125 C 652.691406 375.238281 644.996094 376.164062 637.4375 378.222656 C 636.832031 378.222656 636.257812 378.605469 635.652344 378.796875 C 631.320312 380.277344 627.222656 382.253906 623.363281 384.71875 C 620.449219 386.515625 617.796875 388.644531 615.410156 391.101562 C 613.023438 393.558594 610.972656 396.269531 609.257812 399.238281 C 604.769531 407.324219 604.035156 417.035156 598.304688 424.519531 Z M 598.304688 424.519531 " fill-opacity="1" fill-rule="nonzero"/><g clip-path="url(#2c793ac6bd)"><path fill="#34765b" d="M 520.964844 186.476562 C 519.300781 188.175781 517.761719 189.980469 516.347656 191.890625 C 513.175781 196.238281 510.609375 200.921875 508.640625 205.929688 C 506.003906 212.636719 504.519531 219.589844 504.183594 226.785156 C 505.140625 224.8125 506.445312 223.109375 508.105469 221.675781 C 509.765625 220.242188 511.644531 219.199219 513.734375 218.539062 C 521.3125 216.949219 525.167969 226.277344 524.816406 232.328125 C 524.304688 240.957031 517.492188 245.253906 511.570312 250.414062 C 508.140625 253.367188 505.636719 256.964844 504.054688 261.207031 C 503.382812 263.15625 502.917969 265.148438 502.65625 267.191406 C 508.289062 259.964844 519.816406 258.246094 528.828125 259.710938 C 530.519531 259.84375 532.183594 260.136719 533.816406 260.597656 C 535.449219 261.054688 537.023438 261.667969 538.535156 262.433594 C 540.046875 263.203125 541.472656 264.109375 542.808594 265.15625 C 544.140625 266.203125 545.363281 267.371094 546.46875 268.65625 C 548.414062 271.441406 549.828125 274.476562 550.710938 277.757812 C 551.589844 281.042969 551.886719 284.375 551.59375 287.761719 C 551.433594 291.289062 550.796875 294.726562 549.675781 298.078125 C 548.554688 301.425781 546.996094 304.558594 545.003906 307.472656 C 540.601562 313.058594 535.488281 317.886719 529.65625 321.960938 C 526.6875 324.230469 523.898438 326.703125 521.292969 329.378906 C 518.6875 332.054688 516.289062 334.910156 514.097656 337.9375 C 511.910156 340.964844 509.953125 344.136719 508.226562 347.449219 C 506.5 350.765625 505.027344 354.1875 503.800781 357.714844 C 500.746094 365.703125 498.625 373.925781 497.433594 382.394531 C 495.011719 401.722656 493.007812 426.175781 493.007812 433.148438 C 493.421875 461.484375 493.453125 489.824219 493.582031 518.164062 C 493.582031 527.800781 493.582031 537.449219 493.582031 547.105469 C 494.445312 544.609375 495.695312 542.328125 497.335938 540.261719 C 502.464844 533.890625 510.902344 528.765625 519.148438 531.757812 C 520.785156 532.363281 522.28125 533.207031 523.644531 534.296875 C 525.003906 535.386719 526.160156 536.664062 527.109375 538.128906 C 528.9375 540.351562 530.050781 542.886719 530.453125 545.738281 C 530.453125 545.738281 509.277344 536.535156 506.378906 555.289062 C 505.042969 569.523438 517.332031 575.984375 528.667969 567.070312 C 533.316406 563.375 535.898438 554.332031 536.183594 548.824219 C 536.789062 536.375 527.9375 524.308594 522.171875 513.800781 C 516.058594 502.625 510.011719 491.511719 507.304688 478.933594 C 506.023438 472.839844 505.382812 466.679688 505.382812 460.453125 C 505.382812 454.222656 506.023438 448.0625 507.304688 441.96875 C 512.367188 417.640625 528.796875 399.078125 543.21875 379.71875 C 550.515625 370.492188 556.480469 360.472656 561.113281 349.660156 C 565.25 339.167969 567.574219 328.289062 568.085938 317.023438 C 568.402344 309.785156 567.980469 302.589844 566.8125 295.4375 C 566.589844 294.128906 566.335938 292.824219 566.082031 291.519531 C 563.824219 280.605469 559.949219 270.300781 554.460938 260.601562 C 550.703125 254.648438 546.308594 249.171875 542.199219 243.40625 C 540.738281 241.304688 539.273438 239.171875 537.902344 237.039062 C 535.101562 233.464844 532.621094 229.675781 530.46875 225.679688 C 528.3125 221.679688 526.515625 217.527344 525.074219 213.21875 C 523.628906 208.910156 522.5625 204.511719 521.875 200.023438 C 521.183594 195.535156 520.878906 191.019531 520.964844 186.476562 Z M 520.964844 186.476562 " fill-opacity="1" fill-rule="nonzero"/></g><path fill="#34765b" d="M 528.796875 730.128906 C 534.597656 726.472656 540.890625 724.160156 547.675781 723.1875 C 551.085938 722.78125 554.5 722.632812 557.929688 722.742188 C 561.113281 722.742188 565.636719 722.484375 566.972656 719.078125 C 567.132812 718.351562 567.175781 717.617188 567.101562 716.875 C 567.03125 716.136719 566.84375 715.421875 566.542969 714.742188 C 566.242188 714.0625 565.84375 713.445312 565.34375 712.890625 C 564.847656 712.335938 564.273438 711.871094 563.628906 711.5 C 560.421875 709.855469 557.101562 708.484375 553.664062 707.394531 C 553.265625 707.203125 552.980469 706.90625 552.804688 706.5 C 552.488281 706.488281 552.203125 706.394531 551.945312 706.214844 C 551.683594 706.039062 551.496094 705.804688 551.371094 705.515625 C 550.292969 702.246094 549.007812 699.0625 547.519531 695.960938 C 547.164062 695.296875 546.71875 694.699219 546.183594 694.167969 C 545.644531 693.640625 545.039062 693.203125 544.367188 692.863281 C 543.695312 692.519531 542.984375 692.289062 542.242188 692.164062 C 541.496094 692.042969 540.75 692.035156 540.003906 692.140625 C 536.5 693.160156 536.023438 697.808594 535.992188 700.800781 C 536.109375 704.386719 535.972656 707.964844 535.578125 711.53125 C 534.628906 718.210938 532.371094 724.40625 528.796875 730.128906 Z M 528.796875 730.128906 " fill-opacity="1" fill-rule="nonzero"/><g clip-path="url(#9d5c7bfe65)"><path fill="#34765b" d="M 694.304688 713.507812 C 697.375 711.984375 700.558594 710.765625 703.855469 709.84375 C 699.175781 710.066406 694.558594 710.226562 690.007812 710.226562 C 669.902344 709.773438 650.179688 706.78125 630.847656 701.246094 C 611.074219 696.121094 591.300781 692.363281 571.335938 696.472656 C 578.945312 700.707031 585.917969 706.40625 587.859375 715.351562 C 590.089844 725.703125 585.378906 736.558594 574.550781 739.296875 C 568.691406 740.339844 562.832031 740.339844 556.976562 739.296875 C 551.242188 738.421875 545.519531 738.503906 539.8125 739.550781 C 524.433594 743.117188 504.40625 756.078125 504.40625 756.078125 C 504.40625 755.378906 517.300781 730.03125 519.019531 719.175781 C 519.859375 713.464844 519.941406 707.742188 519.277344 702.011719 C 518.234375 696.152344 518.234375 690.292969 519.277344 684.4375 C 522.015625 673.640625 532.902344 668.898438 543.21875 671.125 C 552.199219 673.070312 557.867188 680.042969 562.101562 687.683594 C 565.699219 670.332031 563.472656 652.945312 559.234375 635.625 C 554.429688 615.976562 549.238281 597.03125 548.503906 576.6875 C 548.25 569.648438 548.316406 562.453125 548.695312 555.195312 C 544.398438 570.351562 531.980469 586.523438 514.691406 583.5625 C 513.464844 583.300781 512.261719 582.953125 511.082031 582.527344 C 509.902344 582.101562 508.757812 581.597656 507.644531 581.019531 C 506.535156 580.4375 505.464844 579.789062 504.441406 579.066406 C 503.414062 578.339844 502.445312 577.554688 501.523438 576.699219 C 500.605469 575.847656 499.75 574.933594 498.953125 573.96875 C 498.15625 573 497.425781 571.980469 496.765625 570.914062 C 496.105469 569.847656 495.519531 568.742188 495.007812 567.597656 C 494.496094 566.453125 494.0625 565.28125 493.707031 564.078125 C 493.707031 581.207031 493.78125 598.328125 493.929688 615.4375 C 493.929688 644.667969 494.121094 673.894531 494.121094 703.125 C 494.121094 718.316406 494.597656 758.019531 494.664062 763.019531 L 494.664062 763.527344 C 494.664062 768.527344 494.152344 808.105469 494.121094 823.421875 C 494.121094 852.652344 494.121094 881.882812 493.929688 911.109375 C 493.929688 928.242188 493.855469 945.359375 493.707031 962.46875 C 494.0625 961.265625 494.496094 960.09375 495.007812 958.949219 C 495.519531 957.804688 496.105469 956.699219 496.765625 955.632812 C 497.425781 954.566406 498.15625 953.550781 498.953125 952.582031 C 499.75 951.613281 500.605469 950.699219 501.523438 949.847656 C 502.445312 948.996094 503.414062 948.207031 504.441406 947.484375 C 505.464844 946.761719 506.535156 946.109375 507.644531 945.527344 C 508.757812 944.949219 509.902344 944.445312 511.082031 944.019531 C 512.261719 943.59375 513.464844 943.25 514.691406 942.984375 C 531.980469 940.023438 544.398438 956.199219 548.695312 971.355469 C 548.316406 964.09375 548.25 956.898438 548.503906 949.859375 C 549.238281 929.515625 554.429688 910.570312 559.234375 890.921875 C 563.472656 873.601562 565.605469 856.21875 562.101562 838.863281 C 557.867188 846.503906 552.199219 853.480469 543.21875 855.421875 C 532.902344 857.648438 522.015625 852.90625 519.277344 842.113281 C 518.234375 836.253906 518.234375 830.394531 519.277344 824.535156 C 519.984375 818.808594 519.941406 813.089844 519.148438 807.375 C 517.429688 796.515625 504.535156 771.171875 504.535156 770.46875 C 504.535156 770.46875 524.5625 783.429688 539.941406 786.996094 C 545.648438 788.042969 551.367188 788.128906 557.101562 787.25 C 562.960938 786.207031 568.820312 786.207031 574.679688 787.25 C 585.503906 789.988281 590.21875 800.847656 587.988281 811.195312 C 586.046875 820.140625 579.074219 825.839844 571.460938 830.074219 C 591.425781 834.183594 611.199219 830.425781 630.972656 825.300781 C 650.308594 819.765625 670.027344 816.773438 690.132812 816.320312 C 694.6875 816.320312 699.304688 816.480469 703.984375 816.703125 C 700.683594 815.78125 697.5 814.5625 694.433594 813.039062 C 679.625 805.589844 668.960938 787.566406 680.070312 772.539062 C 682.652344 769.058594 685.835938 766.269531 689.625 764.164062 L 691.4375 763.210938 C 690.84375 762.933594 690.238281 762.617188 689.625 762.253906 C 685.835938 760.152344 682.652344 757.359375 680.070312 753.878906 C 668.863281 738.882812 679.5 720.957031 694.304688 713.507812 Z M 694.304688 713.507812 " fill-opacity="1" fill-rule="nonzero"/></g><g clip-path="url(#6438f81e72)"><path fill="#34765b" d="M 522.714844 304.605469 C 524.742188 303.019531 526.480469 301.164062 527.929688 299.039062 C 529.382812 296.914062 530.476562 294.621094 531.214844 292.15625 C 531.410156 290.894531 531.414062 289.632812 531.230469 288.371094 C 531.046875 287.109375 530.679688 285.898438 530.132812 284.746094 C 529.582031 283.59375 528.878906 282.546875 528.015625 281.609375 C 527.152344 280.667969 526.171875 279.875 525.070312 279.230469 C 520.136719 276.300781 510.390625 277.160156 509.820312 284.355469 C 509.742188 285.070312 509.78125 285.78125 509.933594 286.484375 C 510.085938 287.191406 510.34375 287.851562 510.707031 288.472656 C 511.070312 289.097656 511.519531 289.644531 512.0625 290.121094 C 512.601562 290.597656 513.203125 290.980469 513.863281 291.265625 C 521.058594 294.003906 523.894531 285.5 523.859375 287.0625 C 523.445312 298.90625 512.652344 307.664062 501 302.980469 C 498.316406 301.824219 496.035156 300.125 494.152344 297.886719 C 494.152344 299.417969 494.152344 301.070312 494.152344 302.410156 C 494.152344 312.152344 493.867188 321.894531 493.738281 331.605469 C 493.613281 341.320312 493.515625 350.710938 493.261719 360.042969 L 493.261719 363.480469 C 494.664062 352.054688 497.761719 341.113281 502.558594 330.652344 C 507.679688 320.734375 514.398438 312.050781 522.714844 304.605469 Z M 522.714844 304.605469 " fill-opacity="1" fill-rule="nonzero"/></g><path fill="#34765b" d="M 572.832031 297.1875 C 573.023438 298.367188 573.246094 299.511719 573.40625 300.691406 C 574.601562 308.980469 575.128906 317.3125 574.996094 325.683594 C 574.957031 334.183594 573.945312 342.5625 571.953125 350.824219 C 569.964844 359.085938 567.050781 367.007812 563.214844 374.59375 C 562.164062 376.628906 560.988281 378.574219 559.777344 380.515625 C 560.808594 379.808594 561.902344 379.210938 563.058594 378.730469 C 564.527344 378.070312 566.046875 377.570312 567.621094 377.234375 C 569.199219 376.894531 570.792969 376.726562 572.402344 376.726562 C 574.011719 376.726562 575.605469 376.894531 577.179688 377.234375 C 578.757812 377.570312 580.277344 378.070312 581.746094 378.730469 C 583.113281 379.578125 584.355469 380.578125 585.476562 381.730469 C 586.597656 382.882812 587.5625 384.148438 588.371094 385.539062 C 589.183594 386.925781 589.8125 388.390625 590.265625 389.929688 C 590.71875 391.472656 590.976562 393.046875 591.046875 394.652344 C 593.757812 392.257812 596.105469 389.550781 598.089844 386.523438 C 600.074219 383.5 601.621094 380.265625 602.730469 376.820312 C 606.132812 367.3125 608.253906 357.527344 609.097656 347.464844 C 609.957031 340.046875 609.847656 332.640625 608.769531 325.25 C 607.691406 317.863281 605.675781 310.734375 602.730469 303.875 C 599.109375 296.035156 594.257812 289.054688 588.179688 282.921875 C 581.367188 275.980469 574.136719 269.421875 566.6875 263.179688 C 563.246094 260.25 559.648438 257.449219 556.117188 254.617188 C 560.269531 260.699219 563.738281 267.152344 566.519531 273.972656 C 569.296875 280.792969 571.328125 287.832031 572.609375 295.085938 C 572.609375 295.785156 572.609375 296.488281 572.832031 297.1875 Z M 572.832031 297.1875 " fill-opacity="1" fill-rule="nonzero"/><path fill="#34765b" d="M 690.578125 596.363281 C 694.136719 587.800781 698.816406 579.90625 704.621094 572.675781 C 711.246094 564.269531 723.152344 551.054688 719.523438 539.335938 C 707.582031 534.785156 694.050781 547.136719 685.359375 553.984375 C 678.136719 559.730469 670.273438 564.390625 661.761719 567.960938 C 664.496094 568.089844 667.222656 568.027344 669.945312 567.769531 C 672.367188 567.546875 673.320312 570.382812 672.460938 572.164062 C 668.054688 581.574219 663.023438 590.640625 657.371094 599.355469 C 656.476562 600.820312 655.460938 602.539062 654.472656 603.878906 L 659.34375 600.695312 C 668.070312 595.058594 677.136719 590.027344 686.535156 585.601562 C 688.320312 584.742188 691.152344 585.601562 690.929688 588.117188 C 690.621094 590.859375 690.503906 593.605469 690.578125 596.363281 Z M 690.578125 596.363281 " fill-opacity="1" fill-rule="nonzero"/><path fill="#34765b" d="M 809.410156 530.644531 C 805.976562 532.179688 802.855469 534.199219 800.050781 536.703125 C 797.246094 539.210938 794.890625 542.082031 792.980469 545.324219 C 791.460938 548.089844 790.300781 551 789.511719 554.058594 C 788.71875 557.113281 788.3125 560.21875 788.300781 563.375 C 789.265625 563.289062 790.234375 563.273438 791.203125 563.324219 C 792.175781 563.375 793.136719 563.492188 794.089844 563.679688 C 795.042969 563.867188 795.976562 564.121094 796.894531 564.441406 C 797.8125 564.761719 798.703125 565.144531 799.5625 565.589844 C 800.425781 566.035156 801.253906 566.539062 802.042969 567.105469 C 802.835938 567.667969 803.582031 568.285156 804.285156 568.953125 C 804.992188 569.621094 805.644531 570.335938 806.246094 571.101562 C 806.847656 571.863281 807.394531 572.664062 807.882812 573.503906 C 810.015625 577.582031 811.507812 581.882812 812.347656 586.410156 C 813.1875 590.933594 813.34375 595.484375 812.816406 600.058594 C 812.085938 610.085938 808.199219 623.300781 817.75 630.527344 C 818.640625 631.203125 819.578125 631.785156 820.574219 632.285156 C 821.570312 632.785156 822.601562 633.1875 823.671875 633.496094 C 824.742188 633.800781 825.832031 634.007812 826.9375 634.117188 C 828.046875 634.222656 829.152344 634.226562 830.261719 634.128906 C 831.371094 634.03125 832.460938 633.835938 833.535156 633.535156 C 834.605469 633.234375 835.640625 632.839844 836.640625 632.351562 C 837.640625 631.859375 838.585938 631.285156 839.476562 630.617188 C 840.371094 629.953125 841.195312 629.210938 841.949219 628.394531 C 843.765625 626.230469 847.140625 628.078125 847.203125 630.5625 C 847.226562 631.515625 847.195312 632.464844 847.113281 633.417969 C 847.03125 634.367188 846.898438 635.308594 846.714844 636.246094 C 846.53125 637.183594 846.300781 638.105469 846.015625 639.015625 C 845.734375 639.925781 845.402344 640.820312 845.019531 641.695312 C 844.640625 642.570312 844.214844 643.421875 843.742188 644.25 C 843.269531 645.078125 842.753906 645.878906 842.195312 646.652344 C 841.636719 647.425781 841.039062 648.167969 840.398438 648.875 C 839.761719 649.582031 839.085938 650.253906 838.375 650.890625 C 837.664062 651.527344 836.917969 652.121094 836.144531 652.675781 C 835.367188 653.230469 834.5625 653.742188 833.734375 654.210938 C 832.902344 654.679688 832.046875 655.097656 831.171875 655.476562 C 830.292969 655.851562 829.398438 656.179688 828.488281 656.457031 C 827.574219 656.734375 826.652344 656.964844 825.714844 657.144531 C 824.777344 657.324219 823.832031 657.449219 822.882812 657.527344 C 821.933594 657.605469 820.980469 657.628906 820.027344 657.601562 C 819.074219 657.578125 818.125 657.5 817.179688 657.371094 C 815.734375 657.136719 814.332031 656.757812 812.964844 656.234375 C 811.597656 655.710938 810.300781 655.050781 809.070312 654.261719 C 807.839844 653.46875 806.703125 652.558594 805.664062 651.535156 C 804.621094 650.507812 803.691406 649.386719 802.882812 648.167969 C 800.6875 653.300781 798.128906 658.25 795.207031 663.007812 C 792.863281 666.960938 790.230469 670.71875 787.3125 674.273438 C 784.398438 677.832031 781.226562 681.148438 777.808594 684.222656 C 774.386719 687.296875 770.753906 690.097656 766.910156 692.617188 C 763.0625 695.140625 759.046875 697.359375 754.867188 699.273438 C 744.632812 703.558594 734.019531 706.433594 723.023438 707.902344 L 723.375 707.902344 C 728.4375 708.523438 733.382812 709.660156 738.210938 711.308594 C 743.039062 712.953125 747.644531 715.078125 752.03125 717.675781 C 765.597656 724.90625 779.414062 731.335938 794.921875 732.738281 C 799.476562 733.054688 804.03125 733.023438 808.582031 732.648438 C 813.136719 732.269531 817.632812 731.550781 822.074219 730.484375 C 826.515625 729.421875 830.851562 728.027344 835.078125 726.300781 C 839.308594 724.574219 843.382812 722.539062 847.300781 720.191406 C 853.105469 716.726562 858.679688 712.914062 864.015625 708.761719 C 862.359375 709.210938 860.679688 709.5 858.96875 709.628906 C 857.257812 709.757812 855.550781 709.722656 853.847656 709.527344 C 852.140625 709.332031 850.472656 708.976562 848.835938 708.460938 C 847.199219 707.945312 845.625 707.285156 844.117188 706.46875 C 842.273438 705.652344 840.519531 704.679688 838.851562 703.550781 C 837.1875 702.421875 835.632812 701.152344 834.191406 699.746094 C 832.75 698.335938 831.445312 696.8125 830.277344 695.171875 C 829.113281 693.53125 828.097656 691.796875 827.242188 689.976562 C 826.464844 687.9375 825.933594 685.835938 825.65625 683.671875 C 825.378906 681.503906 825.355469 679.339844 825.589844 677.167969 C 825.828125 675 826.3125 672.886719 827.046875 670.832031 C 827.785156 668.777344 828.75 666.839844 829.945312 665.011719 C 835.742188 656.828125 845.867188 654.886719 854.847656 651.609375 C 858.035156 650.398438 861.007812 648.789062 863.761719 646.777344 C 866.519531 644.769531 868.960938 642.429688 871.085938 639.761719 C 874.996094 634.976562 877.992188 629.667969 880.0625 623.84375 C 882.152344 617.25 883.363281 610.5 883.695312 603.589844 C 883.957031 596.875 883.363281 590.238281 881.90625 583.675781 C 880.449219 577.113281 878.179688 570.847656 875.097656 564.875 C 863.632812 542.425781 836.15625 518.671875 809.410156 530.644531 Z M 809.410156 530.644531 " fill-opacity="1" fill-rule="nonzero"/><path fill="#34765b" d="M 864.496094 667.625 C 865.871094 667.703125 867.230469 667.917969 868.5625 668.269531 C 869.898438 668.625 871.1875 669.105469 872.425781 669.714844 C 873.664062 670.324219 874.828125 671.050781 875.921875 671.894531 C 877.015625 672.738281 878.015625 673.679688 878.917969 674.722656 C 879.796875 675.96875 880.519531 677.296875 881.085938 678.710938 C 881.652344 680.125 882.046875 681.585938 882.269531 683.09375 C 882.496094 684.601562 882.542969 686.113281 882.410156 687.632812 C 882.28125 689.148438 881.976562 690.632812 881.496094 692.078125 C 880.859375 694.605469 879.796875 696.941406 878.3125 699.082031 C 884.574219 695.328125 891.148438 692.246094 898.039062 689.839844 C 904.929688 687.429688 911.992188 685.746094 919.230469 684.785156 C 934.074219 682.882812 948.847656 683.328125 963.550781 686.125 C 970.894531 687.339844 978.019531 689.332031 984.929688 692.097656 C 991.839844 694.863281 998.375 698.335938 1004.53125 702.519531 C 1003.382812 701.121094 1002.238281 699.71875 1001.125 698.285156 C 993.96875 689.390625 986.390625 680.902344 978.390625 672.8125 C 976.425781 670.808594 974.367188 668.917969 972.203125 667.132812 C 970.039062 665.347656 967.789062 663.683594 965.449219 662.140625 C 963.109375 660.597656 960.695312 659.179688 958.203125 657.894531 C 955.710938 656.605469 953.160156 655.453125 950.546875 654.4375 C 947.933594 653.421875 945.273438 652.546875 942.570312 651.816406 C 939.863281 651.082031 937.125 650.496094 934.355469 650.054688 C 931.585938 649.613281 928.804688 649.320312 926.003906 649.175781 C 923.203125 649.03125 920.402344 649.035156 917.605469 649.1875 C 906.335938 649.613281 895.347656 651.609375 884.648438 655.175781 C 880.769531 656.253906 877.117188 657.851562 873.6875 659.96875 C 870.261719 662.085938 867.195312 664.636719 864.496094 667.625 Z M 864.496094 667.625 " fill-opacity="1" fill-rule="nonzero"/><path fill="#34765b" d="M 972.5 737.671875 C 971.84375 737.792969 971.230469 738.023438 970.65625 738.359375 C 970.082031 738.699219 969.582031 739.121094 969.15625 739.632812 C 968.730469 740.144531 968.402344 740.714844 968.175781 741.339844 C 967.949219 741.964844 967.839844 742.613281 967.839844 743.277344 C 967.839844 743.941406 967.949219 744.589844 968.175781 745.214844 C 968.402344 745.839844 968.730469 746.410156 969.15625 746.921875 C 969.582031 747.433594 970.082031 747.859375 970.65625 748.195312 C 971.230469 748.53125 971.84375 748.761719 972.5 748.882812 C 979.183594 750.347656 982.496094 742.992188 981.351562 737.449219 C 981.074219 736.226562 980.632812 735.070312 980.019531 733.972656 C 979.410156 732.878906 978.652344 731.894531 977.753906 731.023438 C 976.855469 730.148438 975.847656 729.421875 974.738281 728.839844 C 973.625 728.261719 972.457031 727.851562 971.226562 727.613281 C 965.9375 726.625 961.195312 729.746094 957.46875 733.183594 C 953.742188 736.621094 950.402344 740.730469 946.578125 744.234375 C 942.332031 748.113281 937.683594 751.4375 932.632812 754.199219 C 926.117188 757.734375 919.285156 760.472656 912.128906 762.414062 C 910.980469 762.765625 909.835938 763.050781 908.65625 763.335938 C 909.835938 763.625 910.980469 763.910156 912.128906 764.261719 C 919.285156 766.199219 926.117188 768.9375 932.632812 772.476562 C 937.683594 775.238281 942.332031 778.5625 946.578125 782.441406 C 950.402344 785.945312 953.679688 789.988281 957.46875 793.492188 C 961.257812 796.992188 965.9375 800.050781 971.226562 799.0625 C 972.457031 798.824219 973.625 798.414062 974.738281 797.832031 C 975.847656 797.253906 976.855469 796.527344 977.753906 795.652344 C 978.652344 794.777344 979.410156 793.792969 980.019531 792.699219 C 980.632812 791.605469 981.074219 790.449219 981.351562 789.222656 C 982.496094 783.683594 979.183594 776.328125 972.5 777.792969 C 971.84375 777.914062 971.230469 778.144531 970.65625 778.480469 C 970.082031 778.816406 969.582031 779.242188 969.15625 779.753906 C 968.730469 780.265625 968.402344 780.832031 968.175781 781.460938 C 967.949219 782.085938 967.839844 782.730469 967.839844 783.398438 C 967.839844 784.0625 967.949219 784.707031 968.175781 785.335938 C 968.402344 785.960938 968.730469 786.53125 969.15625 787.042969 C 969.582031 787.554688 970.082031 787.976562 970.65625 788.3125 C 971.230469 788.652344 971.84375 788.878906 972.5 789 C 974.027344 789.289062 973.644531 791.738281 972.117188 791.707031 C 960.273438 791.292969 951.515625 780.5 956.355469 768.847656 C 957.070312 767.179688 958.027344 765.660156 959.222656 764.292969 C 959.472656 763.945312 959.761719 763.625 960.082031 763.335938 C 959.761719 763.050781 959.472656 762.730469 959.222656 762.382812 C 958.027344 761.015625 957.070312 759.496094 956.355469 757.828125 C 951.515625 746.175781 960.273438 735.382812 972.117188 734.96875 C 973.804688 734.933594 974.027344 737.324219 972.5 737.671875 Z M 972.5 737.671875 " fill-opacity="1" fill-rule="nonzero"/><path fill="#34765b" d="M 752.222656 511.253906 C 762.03125 520.488281 774.511719 519.628906 783.554688 516.570312 C 793.777344 513.101562 799.476562 502.625 807.59375 496.257812 C 811.894531 493.148438 816.457031 490.488281 821.277344 488.273438 C 826.101562 486.0625 831.089844 484.339844 836.25 483.105469 C 839.558594 482.339844 842.90625 481.984375 846.296875 482.03125 C 849.691406 482.078125 853.027344 482.535156 856.3125 483.390625 C 854.300781 481.234375 852.070312 479.339844 849.617188 477.703125 C 847.164062 476.066406 844.554688 474.734375 841.792969 473.707031 C 839.027344 472.675781 836.183594 471.980469 833.257812 471.617188 C 830.332031 471.25 827.402344 471.230469 824.46875 471.546875 C 818.769531 472.214844 817.910156 464.289062 821.828125 461.582031 C 834.023438 453.238281 844.65625 444.707031 850.484375 430.695312 C 855.355469 418.851562 859.75 406.785156 864.558594 394.9375 C 852.492188 399.875 840.230469 404.269531 828.257812 409.296875 C 814.1875 415.0625 805.621094 425.695312 797.308594 437.957031 C 794.667969 441.808594 786.738281 441.140625 787.34375 435.21875 C 787.65625 432.289062 787.628906 429.363281 787.265625 426.441406 C 786.898438 423.519531 786.207031 420.679688 785.183594 417.917969 C 784.164062 415.15625 782.839844 412.546875 781.214844 410.089844 C 779.589844 407.632812 777.707031 405.398438 775.5625 403.375 C 777.191406 409.707031 777.347656 416.074219 776.039062 422.480469 C 774.875 427.851562 773.164062 433.046875 770.90625 438.058594 C 768.644531 443.070312 765.890625 447.789062 762.636719 452.21875 C 756.457031 460.210938 746.429688 465.625 742.640625 475.242188 C 739.136719 484.253906 738.820312 498.070312 748.117188 507.082031 C 749.382812 508.570312 750.753906 509.960938 752.222656 511.253906 Z M 752.222656 511.253906 " fill-opacity="1" fill-rule="nonzero"/><path fill="#34765b" d="M 1185.609375 762.320312 C 1177.488281 758.816406 1169.496094 755.121094 1161.347656 751.777344 C 1149.980469 747.003906 1139.058594 748.214844 1127.214844 750.441406 C 1123.519531 751.140625 1119.445312 746.144531 1123.074219 743.214844 C 1124.933594 741.714844 1126.597656 740.027344 1128.066406 738.144531 C 1129.535156 736.261719 1130.769531 734.238281 1131.769531 732.066406 C 1132.769531 729.898438 1133.507812 727.644531 1133.984375 725.308594 C 1134.464844 722.96875 1134.667969 720.605469 1134.601562 718.21875 C 1131.894531 722.734375 1128.347656 726.449219 1123.964844 729.363281 C 1116.960938 733.917969 1105.59375 733.3125 1099.289062 738.691406 C 1091.960938 744.628906 1084.027344 749.597656 1075.484375 753.59375 C 1066.941406 757.589844 1058.042969 760.496094 1048.789062 762.320312 L 1043.632812 763.335938 L 1048.789062 764.355469 C 1058.042969 766.175781 1066.941406 769.085938 1075.484375 773.082031 C 1084.027344 777.078125 1091.960938 782.046875 1099.289062 787.980469 C 1105.65625 793.363281 1116.960938 792.757812 1123.964844 797.3125 C 1128.347656 800.226562 1131.894531 803.941406 1134.601562 808.457031 C 1134.667969 806.070312 1134.464844 803.707031 1133.984375 801.367188 C 1133.507812 799.027344 1132.769531 796.773438 1131.769531 794.605469 C 1130.769531 792.4375 1129.535156 790.414062 1128.066406 788.53125 C 1126.597656 786.648438 1124.933594 784.957031 1123.074219 783.460938 C 1119.445312 780.53125 1123.519531 775.53125 1127.214844 776.234375 C 1138.996094 778.460938 1149.980469 779.671875 1161.347656 774.894531 C 1169.496094 771.550781 1177.488281 767.859375 1185.609375 764.355469 L 1187.996094 763.335938 Z M 1185.609375 762.320312 " fill-opacity="1" fill-rule="nonzero"/><g clip-path="url(#bc1aab5d02)"><path fill="#34765b" d="M 528.03125 135.054688 C 530.949219 130.671875 534.664062 127.125 539.175781 124.417969 C 536.789062 124.351562 534.425781 124.554688 532.085938 125.035156 C 529.75 125.511719 527.496094 126.25 525.328125 127.25 C 523.160156 128.25 521.132812 129.484375 519.25 130.953125 C 517.367188 132.421875 515.679688 134.085938 514.179688 135.945312 C 511.25 139.574219 506.253906 135.5 506.921875 131.804688 C 509.183594 120.023438 510.390625 109.039062 505.617188 97.671875 C 501.605469 87.960938 497.082031 78.410156 493.007812 68.664062 L 493.007812 221.246094 C 493.546875 221.5 495.839844 186.476562 518.671875 159.761719 C 524.050781 153.425781 523.445312 142.058594 528.03125 135.054688 Z M 528.03125 135.054688 " fill-opacity="1" fill-rule="nonzero"/></g></svg>